<svg id="Capa_1" enable-background="new 0 0 512 512" height="16" viewBox="0 0 512 512" width="16" xmlns="http://www.w3.org/2000/svg"><g><path d="m316.007 427.539h171.762v84.461h-171.762z"/><path d="m378.617 102.751h-91.609v-102.751h-83.87v102.751h-91.61v83.869h91.61v116.124c6.301 3.427 12.151 7.77 17.365 12.983 12.429 12.43 19.983 28.546 21.699 45.673 10.897 13.324 16.952 30.062 16.952 47.64s-6.055 34.315-16.952 47.64c-1.716 17.127-9.27 33.241-21.697 45.67-3.65 3.65-7.616 6.867-11.824 9.651h78.327v-325.381h91.609zm-117.753 58.854h-31.582v-29.968h31.582z"/><path d="m127.034 389.87c-10.741 0-19.48 8.739-19.48 19.48s8.739 19.48 19.48 19.48 19.479-8.739 19.479-19.48-8.739-19.48-19.479-19.48z"/><path d="m213.367 444.735c10.531-8.709 16.787-21.702 16.787-35.696s-6.256-26.986-16.786-35.696c1.287-13.604-3.476-27.215-13.371-37.109-8.755-8.756-20.396-13.577-32.779-13.577-1.453 0-2.9.067-4.337.2-8.709-10.525-21.702-16.779-35.689-16.779-13.988 0-26.979 6.253-35.69 16.779-1.437-.133-2.883-.2-4.336-.2-12.383 0-24.024 4.822-32.78 13.577-9.894 9.894-14.658 23.505-13.37 37.109-10.53 8.709-16.786 21.702-16.786 35.696s6.256 26.986 16.786 35.696c-1.288 13.604 3.477 27.215 13.371 37.109 8.755 8.756 20.396 13.577 32.779 13.577 1.453 0 2.9-.067 4.336-.2 8.71 10.524 21.702 16.779 35.689 16.779s26.98-6.254 35.689-16.779c1.437.133 2.884.2 4.337.2 12.382 0 24.023-4.822 32.78-13.577 9.894-9.895 14.658-23.505 13.37-37.109zm-86.333 14.062c-27.265 0-49.447-22.182-49.447-49.447s22.182-49.447 49.447-49.447 49.447 22.182 49.447 49.447-22.183 49.447-49.447 49.447z"/><path d="m339.828 352.063c0 24.554 19.976 44.531 44.531 44.531s44.531-19.977 44.531-44.531c0-13.485-10.409-29.663-18.239-40.659-8.234-11.563-26.292-31.964-26.292-31.964s-18.059 20.401-26.293 31.964c-7.828 10.996-18.238 27.175-18.238 40.659z"/></g></svg>
